<svg version="1.1" id="Layer_1" xmlns="http://www.w3.org/2000/svg" x="0" y="0" viewBox="0 0 200 150" xml:space="preserve"><style>.st0{fill:#fff}.st1{fill:none}.st2{fill:#032e61}.st4{fill:#a372b5}.st5{fill:#741b89}.st6{fill:#009a44}.st7{fill:#046a38}</style><path class="st0" d="M0 0h200v150H0z"/><path class="st1" d="M72.3 116.9h4l-2-4.5zM59.3 110.5h-1.7v5.1h1.7c2.1 0 2.9-1.1 2.9-2.6-.1-1.5-.8-2.5-2.9-2.5zM95.2 54.1l1.2 1.9zM135.7 116.9h3.9l-1.9-4.5zM152.4 110.5h-2.6v8.7h2.6c2.5 0 4.4-1.8 4.4-4.3.1-2.6-1.8-4.4-4.4-4.4z"/><path class="st2" d="M134.6 85.5v-4.9c.3-22.4-12.9-42.8-33.6-51.6-.6-.3-1.3-.3-1.9 0-20.6 8.8-33.9 29.2-33.6 51.6v4.9c0 .8.4 1.5 1 2 9.9 6.6 21.6 10.2 33.5 10.3h1.4c11.4-.4 22.6-4 32.1-10.3.7-.4 1.1-1.2 1.1-2zM82.4 47.2c8.3-10 17.7-13.3 17.7-13.3 1.9.9 24.4 9.6 29 38.1h-5.8L112 55.8c-.8-1.1-2.3-1.4-3.4-.6-.2.2-.5.4-.6.6l-2.9 4.1-7.9-11.5c-.8-1.1-2.3-1.4-3.4-.6-.3.2-.5.4-.6.6 0 0-16.1 23.5-16.1 23.6h-5.8c1.5-10.8 6.1-18.8 11.1-24.8zM117.2 72h-14.5l3.7-5.4 3.5-5.1 7.3 10.5zm12.5 12.2c-3.7 2.3-7.7 4.2-11.7 5.6 0 0-.7.2-1.1.4-2.3.7-4.6 1.3-7 1.8-1.4.3-2.7.5-4 .7-2.1.3-4.1.4-6 .4-4.2 0-8.2-.7-12.7-1.7-5.9-1.5-11.6-3.9-16.8-7.1v-3.6c0-1.2 0-2.5.1-3.7H129.5c.1 1.2.1 2.5.1 3.7l.1 3.5z"/><path d="M93.1 48.4c.2-.3.4-.5.6-.6 1.1-.8 2.7-.5 3.4.6l7.9 11.5 2.9-4.1c.2-.2.4-.5.6-.6 1.1-.8 2.7-.5 3.4.6L123.2 72h5.8c-4.6-28.5-27.1-37.2-29-38.1 0 0-9.4 3.3-17.7 13.3-5 6-9.6 14-11.2 24.7h5.8c.1 0 16.2-23.5 16.2-23.5z" fill="#8cd3f8"/><path class="st4" d="M106.5 66.6l4 5.4h6.7L110 61.5z"/><path class="st5" d="M102.8 72h7.7l-4-5.4z"/><path class="st4" d="M95.2 54.1l-6.3 9.2 6.4 8.7h1.4l5.4-7.7-5.7-8.3z"/><path class="st5" d="M83 71.9l12.3.1-6.4-8.7z"/><path class="st6" d="M102 89.2c.3-.8 0-1.7-.8-2l-2.3-1c-.3-.1-.6-.3-.8-.4-3-1.9-3.9-5.9-2-8.9H70.6c-.1 1.2-.1 2.5-.1 3.7v3.6c5.2 3.2 10.9 5.7 16.8 7.1 4.5 1 8.5 1.6 12.7 1.7l2-3.6v-.2zm-22-9.9l3.7 4.2h-7.4l3.7-4.2zm3.6 8.6l3.7-4.2 3.7 4.2h-7.4zM107 76.9h-4.5l-2.1 2.5c-.1.1-.2.2-.2.4-.3.8 0 1.7.8 2l2.3 1 .6.3c3.1 1.8 4.2 5.7 2.4 8.9l-.4.7c1.3-.2 2.6-.4 4-.7 2.4-.5 4.7-1.1 7-1.8.3-.1 1.1-.4 1.1-.4 4.1-1.4 8-3.3 11.7-5.6v-3.6c0-1.2 0-2.5-.1-3.7H107zm6 8l3.7-4.2 3.7 4.2H113z"/><path class="st0" d="M103.9 83l-.6-.3-2.3-1c-.8-.3-1.1-1.2-.8-2 .1-.1.1-.3.2-.4l2.1-2.5h-6.3c-1.9 3-1 7 2 8.9.3.2.5.3.8.4l2.3 1c.8.3 1.1 1.2.8 2 0 .1 0 .1-.1.1l-2 3.6c1.9 0 3.9-.1 6-.4l.4-.7c1.7-2.9.6-6.9-2.5-8.7z"/><path class="st7" d="M113 84.9h7.3l-3.6-4.2zM83.6 87.9h7.3l-3.7-4.2zM80 79.3l-3.7 4.2h7.4z"/><path class="st2" d="M40.7 110.5H45v10.8h2.3v-10.8h4.3v-2.1H40.7zM64.6 113c0-2.7-1.7-4.6-5.2-4.6h-4.1v12.9h2.3v-3.7H59c.4 0 .8 0 1.2-.1l2.7 3.8h2.7l-3.3-4.4c1.5-.8 2.3-2.2 2.3-3.9zm-5.3 2.5h-1.7v-5.1h1.7c2.2 0 2.9 1.1 2.9 2.5-.1 1.5-.8 2.6-2.9 2.6zM74.1 108.2l-6.1 13h2.4l1.1-2.6H77l1.1 2.6h2.4l-6.1-13h-.3zm-1.8 8.7l2-4.4 2 4.4h-4zM84.3 108.4h2.3v12.9h-2.3zM94 108.4h-2.3v12.9h8.4v-2.1H94zM112.4 114.2h-6.3v-5.8h-2.3v12.9h2.3v-5.1h6.3v5.1h2.3v-12.9h-2.3zM119.7 121.3h8.4v-2.1H122v-3.1h5.6v-2H122v-3.6h6.1v-2.1h-8.4zM137.5 108.2l-6.1 13h2.4l1.1-2.6h5.5l1.1 2.6h2.4l-6.1-13h-.3zm-1.8 8.7l2-4.4 2 4.4h-4zM152.4 108.4h-4.9v12.9h4.9c4 0 6.9-2.8 6.9-6.5s-2.9-6.4-6.9-6.4zm0 10.8h-2.6v-8.7h2.6c2.6 0 4.4 1.9 4.4 4.4.1 2.5-1.9 4.3-4.4 4.3z"/></svg>